<svg version="1.1" xmlns="http://www.w3.org/2000/svg" xmlns:xlink="http://www.w3.org/1999/xlink" width="338.52945" height="44.4981" viewBox="0,0,338.52945,44.4981"><defs><linearGradient x1="208.50076" y1="162.15266" x2="208.50076" y2="199.1484" gradientUnits="userSpaceOnUse" id="color-1"><stop offset="0" stop-color="#006da7"/><stop offset="1" stop-color="#007ba7"/></linearGradient><linearGradient x1="281.57051" y1="172.1539" x2="281.57051" y2="199.1484" gradientUnits="userSpaceOnUse" id="color-2"><stop offset="0" stop-color="#006da7"/><stop offset="1" stop-color="#007ba7"/></linearGradient><linearGradient x1="319.94431" y1="172.15391" x2="319.94431" y2="199.64497" gradientUnits="userSpaceOnUse" id="color-3"><stop offset="0" stop-color="#006da7"/><stop offset="1" stop-color="#007ba7"/></linearGradient><linearGradient x1="166.33087" y1="172.65051" x2="166.33087" y2="199.1484" gradientUnits="userSpaceOnUse" id="color-4"><stop offset="0" stop-color="#006da7"/><stop offset="1" stop-color="#007ba7"/></linearGradient><linearGradient x1="129.08713" y1="172.15393" x2="129.08713" y2="199.64499" gradientUnits="userSpaceOnUse" id="color-5"><stop offset="0" stop-color="#006da7"/><stop offset="1" stop-color="#007ba7"/></linearGradient><linearGradient x1="243.02877" y1="172.15393" x2="243.02877" y2="199.64499" gradientUnits="userSpaceOnUse" id="color-6"><stop offset="0" stop-color="#006da7"/><stop offset="1" stop-color="#007ba7"/></linearGradient><linearGradient x1="82.66146" y1="162.15266" x2="82.66146" y2="199.1484" gradientUnits="userSpaceOnUse" id="color-7"><stop offset="0" stop-color="#006da7"/><stop offset="1" stop-color="#007ba7"/></linearGradient><linearGradient x1="366.46494" y1="172.15392" x2="366.46494" y2="199.1484" gradientUnits="userSpaceOnUse" id="color-8"><stop offset="0" stop-color="#006da7"/><stop offset="1" stop-color="#007ba7"/></linearGradient><linearGradient x1="394.9922" y1="172.15392" x2="394.9922" y2="199.64499" gradientUnits="userSpaceOnUse" id="color-9"><stop offset="0" stop-color="#006da7"/><stop offset="1" stop-color="#007ba7"/></linearGradient><linearGradient x1="105.73184" y1="161.14955" x2="105.73184" y2="199.1484" gradientUnits="userSpaceOnUse" id="color-10"><stop offset="0" stop-color="#006da7"/><stop offset="1" stop-color="#007ba7"/></linearGradient><linearGradient x1="344.11791" y1="172.65051" x2="344.11791" y2="199.1484" gradientUnits="userSpaceOnUse" id="color-11"><stop offset="0" stop-color="#006da7"/><stop offset="1" stop-color="#007ba7"/></linearGradient><linearGradient x1="210.50076" y1="162.15267" x2="210.50076" y2="199.14841" gradientUnits="userSpaceOnUse" id="color-12"><stop offset="0" stop-color="#00a5ff"/><stop offset="1" stop-color="#00bcff"/></linearGradient><linearGradient x1="283.5705" y1="172.15391" x2="283.5705" y2="199.14841" gradientUnits="userSpaceOnUse" id="color-13"><stop offset="0" stop-color="#00a5ff"/><stop offset="1" stop-color="#00bcff"/></linearGradient><linearGradient x1="321.94431" y1="172.15392" x2="321.94431" y2="199.64498" gradientUnits="userSpaceOnUse" id="color-14"><stop offset="0" stop-color="#00a5ff"/><stop offset="1" stop-color="#00bcff"/></linearGradient><linearGradient x1="168.33088" y1="172.65052" x2="168.33088" y2="199.14841" gradientUnits="userSpaceOnUse" id="color-15"><stop offset="0" stop-color="#00a5ff"/><stop offset="1" stop-color="#00bcff"/></linearGradient><linearGradient x1="131.08713" y1="172.15394" x2="131.08713" y2="199.645" gradientUnits="userSpaceOnUse" id="color-16"><stop offset="0" stop-color="#00a5ff"/><stop offset="1" stop-color="#00bcff"/></linearGradient><linearGradient x1="245.02877" y1="172.15394" x2="245.02877" y2="199.645" gradientUnits="userSpaceOnUse" id="color-17"><stop offset="0" stop-color="#00a5ff"/><stop offset="1" stop-color="#00bcff"/></linearGradient><linearGradient x1="84.66146" y1="162.15267" x2="84.66146" y2="199.14841" gradientUnits="userSpaceOnUse" id="color-18"><stop offset="0" stop-color="#00a5ff"/><stop offset="1" stop-color="#00bcff"/></linearGradient><linearGradient x1="368.46494" y1="172.15393" x2="368.46494" y2="199.14841" gradientUnits="userSpaceOnUse" id="color-19"><stop offset="0" stop-color="#00a5ff"/><stop offset="1" stop-color="#00bcff"/></linearGradient><linearGradient x1="396.9922" y1="172.15393" x2="396.9922" y2="199.645" gradientUnits="userSpaceOnUse" id="color-20"><stop offset="0" stop-color="#00a5ff"/><stop offset="1" stop-color="#00bcff"/></linearGradient><linearGradient x1="107.73184" y1="161.14956" x2="107.73184" y2="199.14841" gradientUnits="userSpaceOnUse" id="color-21"><stop offset="0" stop-color="#00a5ff"/><stop offset="1" stop-color="#00bcff"/></linearGradient><linearGradient x1="346.11791" y1="172.65052" x2="346.11791" y2="199.14841" gradientUnits="userSpaceOnUse" id="color-22"><stop offset="0" stop-color="#00a5ff"/><stop offset="1" stop-color="#00bcff"/></linearGradient><linearGradient x1="343.75792" y1="155.15189" x2="343.75792" y2="171.00047" gradientUnits="userSpaceOnUse" id="color-23"><stop offset="0" stop-color="#006da7"/><stop offset="1" stop-color="#007ba7"/></linearGradient><linearGradient x1="345.87734" y1="155.15189" x2="345.87734" y2="171.00047" gradientUnits="userSpaceOnUse" id="color-24"><stop offset="0" stop-color="#00a5ff"/><stop offset="1" stop-color="#00bcff"/></linearGradient></defs><g transform="translate(-69.7353,-155.1469)"><g data-paper-data="{&quot;isPaintingLayer&quot;:true}" fill-rule="nonzero" stroke="none" stroke-width="1" stroke-linejoin="miter" stroke-miterlimit="10" stroke-dasharray="" stroke-dashoffset="0" style="mix-blend-mode: normal"><path d="M192.42624,199.1484v-36.99574h14.00376c2.99938,0 5.64123,0.52639 7.92553,1.57915c2.2843,1.04614 4.17464,2.45314 5.67103,4.22099c1.503,1.76785 2.63522,3.75089 3.39665,5.94912c0.76806,2.19822 1.15208,4.4461 1.15208,6.74365c0,2.30416 -0.38403,4.55536 -1.15208,6.75359c-0.76144,2.19822 -1.89365,4.18126 -3.39665,5.94911c-1.49639,1.76785 -3.38673,3.17816 -5.67103,4.23092c-2.2843,1.04615 -4.92614,1.56921 -7.92553,1.56921zM206.08239,168.89631h-5.94911v23.39918h5.94911c2.42997,0 4.43618,-0.5661 6.01864,-1.69833c1.58246,-1.13222 2.76434,-2.59881 3.54563,-4.39976c0.78792,-1.80096 1.18188,-3.66812 1.18188,-5.6015c0,-1.93338 -0.39396,-3.79061 -1.18188,-5.57171c-0.78129,-1.78109 -1.96317,-3.24768 -3.54563,-4.39976c-1.58246,-1.15208 -3.58867,-1.72813 -6.01864,-1.72813z" fill="url(#color-1)" stroke-linecap="butt"/><path d="M262.07451,199.1484v-26.49789h7.59778v3.59529h0.24829c0.56942,-0.96669 1.42024,-1.89034 2.55246,-2.77096c1.13222,-0.88061 2.68157,-1.32092 4.64805,-1.32092c1.99959,0 3.60853,0.46679 4.82682,1.40037c1.2183,0.93358 2.10884,2.08236 2.67164,3.44631h0.09932c0.43699,-0.76805 1.01303,-1.52617 1.72812,-2.27437c0.71508,-0.74819 1.61226,-1.36396 2.69151,-1.84731c1.08587,-0.48334 2.36375,-0.72502 3.83365,-0.72502c1.83405,0 3.35029,0.41713 4.54872,1.2514c1.19843,0.82765 2.08898,1.91683 2.67164,3.26754c0.58266,1.35072 0.874,2.79413 0.874,4.33024v18.14529h-7.59777v-16.24833c0,-1.29775 -0.32443,-2.37038 -0.97331,-3.21789c-0.64887,-0.85413 -1.62218,-1.28119 -2.91994,-1.28119c-0.99979,0 -1.81088,0.2516 -2.43327,0.75481c-0.61577,0.49659 -1.06601,1.13884 -1.35072,1.92676c-0.27809,0.7813 -0.41713,1.58577 -0.41713,2.41341v15.65243h-7.59779v-16.24833c0,-1.29775 -0.32775,-2.37038 -0.98325,-3.21789c-0.64887,-0.85413 -1.62218,-1.28119 -2.91993,-1.28119c-0.9998,0 -1.80757,0.2516 -2.42334,0.75481c-0.61577,0.49659 -1.06601,1.13884 -1.35072,1.92676c-0.28471,0.7813 -0.42706,1.58577 -0.42706,2.41341v15.65243z" fill="url(#color-2)" stroke-linecap="butt"/><path d="M317.87352,172.15392c1.69502,0 3.09208,0.27478 4.1912,0.82434c1.10573,0.54955 1.94993,1.14216 2.5326,1.77778c0.58266,0.62901 0.9402,1.05938 1.07262,1.29112h0.39727v-3.39666h7.59779v26.49789h-7.59779v-3.39666h-0.39727c-0.13243,0.23174 -0.48996,0.66543 -1.07262,1.30106c-0.58266,0.62901 -1.42686,1.2183 -2.5326,1.76785c-1.09912,0.54955 -2.49618,0.82433 -4.1912,0.82433c-1.96648,0 -3.67474,-0.39065 -5.12477,-1.17194c-1.45003,-0.7813 -2.6584,-1.83075 -3.62509,-3.14836c-0.96669,-1.31761 -1.6917,-2.79082 -2.17505,-4.41962c-0.48334,-1.63542 -0.72502,-3.30396 -0.72502,-5.0056c0,-1.70164 0.24167,-3.36686 0.72502,-4.99567c0.48335,-1.63542 1.20836,-3.11194 2.17505,-4.42955c0.96669,-1.31761 2.17506,-2.36707 3.62509,-3.14837c1.45004,-0.78129 3.15829,-1.17195 5.12477,-1.17195zM320.06845,178.30167c-1.36396,0 -2.50612,0.3741 -3.42645,1.12229c-0.91372,0.74819 -1.5957,1.70826 -2.04594,2.88021c-0.45024,1.16532 -0.67536,2.36375 -0.67536,3.59529c0,1.23153 0.22512,2.43328 0.67536,3.60522c0.45024,1.16532 1.13222,2.12209 2.04594,2.87027c0.92034,0.74819 2.06249,1.12229 3.42645,1.12229c1.37058,0 2.51273,-0.3741 3.42645,-1.12229c0.91372,-0.74819 1.5957,-1.70495 2.04594,-2.87027c0.45024,-1.17194 0.67535,-2.37369 0.67535,-3.60522c0,-1.23153 -0.22511,-2.42996 -0.67535,-3.59529c-0.45024,-1.17194 -1.13222,-2.13202 -2.04594,-2.88021c-0.91372,-0.74819 -2.05587,-1.12229 -3.42645,-1.12229z" fill="url(#color-3)" stroke-linecap="butt"/><path d="M153.57853,199.1484l-8.19369,-26.49789h7.59778l4.74738,17.20178l5.15457,-17.20178h6.89263l5.15458,17.20178l4.74737,-17.20178h7.59778l-8.19368,26.49789h-8.05464l-4.69772,-15.50345l-4.69771,15.50345z" fill="url(#color-4)" stroke-linecap="butt"/><path d="M129.0822,199.64499c-2.96628,0 -5.48232,-0.63894 -7.54812,-1.91683c-2.06581,-1.28451 -3.64164,-2.96959 -4.72751,-5.05525c-1.07925,-2.08567 -1.61888,-4.34348 -1.61888,-6.77345c0,-2.42996 0.53963,-4.68778 1.61888,-6.77345c1.08587,-2.08567 2.6617,-3.76744 4.72751,-5.04532c2.06581,-1.28451 4.58184,-1.92676 7.54812,-1.92676c2.96628,0 5.48232,0.64226 7.54812,1.92676c2.06581,1.27788 3.64164,2.95966 4.72751,5.04532c1.08587,2.08567 1.6288,4.34349 1.6288,6.77345c0,2.42997 -0.54293,4.68778 -1.6288,6.77345c-1.08587,2.08567 -2.6617,3.77075 -4.72751,5.05525c-2.06581,1.27788 -4.58184,1.91683 -7.54812,1.91683zM129.0822,193.44758c1.33748,0 2.46307,-0.34762 3.37679,-1.04284c0.91372,-0.70184 1.61888,-1.6288 2.11546,-2.78088c0.50321,-1.15208 0.75481,-2.39355 0.75481,-3.72441c0,-1.36396 -0.2516,-2.61205 -0.75481,-3.74427c-0.49658,-1.13884 -1.20174,-2.05587 -2.11546,-2.75109c-0.91372,-0.70184 -2.03932,-1.05276 -3.37679,-1.05276c-1.33086,0 -2.46307,0.35092 -3.39665,1.05276c-0.93359,0.69522 -1.64205,1.61225 -2.1254,2.75109c-0.48334,1.13222 -0.72501,2.38031 -0.72501,3.74427c0,1.33086 0.24167,2.57233 0.72501,3.72441c0.48334,1.15208 1.19181,2.07904 2.1254,2.78088c0.93358,0.69522 2.0658,1.04284 3.39665,1.04284z" fill="url(#color-5)" stroke-linecap="butt"/><path d="M243.02382,199.64499c-2.96628,0 -5.48232,-0.63894 -7.54813,-1.91683c-2.0658,-1.28451 -3.64164,-2.96959 -4.72751,-5.05525c-1.07925,-2.08567 -1.61888,-4.34348 -1.61888,-6.77345c0,-2.42996 0.53963,-4.68778 1.61888,-6.77345c1.08587,-2.08567 2.66171,-3.76744 4.72751,-5.04532c2.06581,-1.28451 4.58185,-1.92676 7.54813,-1.92676c2.96628,0 5.48232,0.64226 7.54812,1.92676c2.06581,1.27788 3.64164,2.95966 4.72751,5.04532c1.08587,2.08567 1.6288,4.34349 1.6288,6.77345c0,2.42997 -0.54293,4.68778 -1.6288,6.77345c-1.08587,2.08567 -2.6617,3.77075 -4.72751,5.05525c-2.0658,1.27788 -4.58184,1.91683 -7.54812,1.91683zM243.02382,193.44758c1.33747,0 2.46307,-0.34762 3.37679,-1.04284c0.91372,-0.70184 1.61888,-1.6288 2.11547,-2.78088c0.50321,-1.15208 0.75481,-2.39355 0.75481,-3.72441c0,-1.36396 -0.2516,-2.61205 -0.75481,-3.74427c-0.49658,-1.13884 -1.20175,-2.05587 -2.11547,-2.75109c-0.91372,-0.70184 -2.03931,-1.05276 -3.37679,-1.05276c-1.33086,0 -2.46308,0.35092 -3.39666,1.05276c-0.93358,0.69522 -1.64205,1.61225 -2.12539,2.75109c-0.48334,1.13222 -0.72502,2.38031 -0.72502,3.74427c0,1.33086 0.24167,2.57233 0.72502,3.72441c0.48334,1.15208 1.19181,2.07904 2.12539,2.78088c0.93358,0.69522 2.0658,1.04284 3.39666,1.04284z" fill="url(#color-6)" stroke-linecap="butt"/><path d="M69.7353,199.1484v-36.99574h25.85233v6.69399h-18.14529v9.70332h15.84113v6.4457h-15.84113v14.15273z" fill="url(#color-7)" stroke-linecap="butt"/><path d="M354.41774,199.1484v-26.49789h7.59779v3.80386h0.24829c0.30457,-0.53632 0.7482,-1.13553 1.33085,-1.79765c0.58266,-0.66873 1.36396,-1.2514 2.34389,-1.74798c0.98655,-0.50321 2.24457,-0.75482 3.77406,-0.75482c2.06581,0 3.74758,0.47672 5.04533,1.43017c1.30437,0.94683 2.25451,2.16181 2.85041,3.64495c0.60253,1.48314 0.90379,3.03912 0.90379,4.66792v17.25144h-7.59778v-15.95038c0,-1.26464 -0.34099,-2.38031 -1.02297,-3.347c-0.68198,-0.96669 -1.77447,-1.45003 -3.27747,-1.45003c-1.13222,0 -2.0327,0.26815 -2.70143,0.80447c-0.66212,0.5297 -1.14546,1.21168 -1.45004,2.04594c-0.29795,0.83426 -0.44693,1.71819 -0.44693,2.65178v15.24522z" fill="url(#color-8)" stroke-linecap="butt"/><path d="M395.46894,199.64499c-2.20484,0 -4.02567,-0.29795 -5.46246,-0.89386c-1.43017,-0.60253 -2.56901,-1.34409 -3.41652,-2.22471c-0.84753,-0.88723 -1.47986,-1.77116 -1.897,-2.65177c-0.41714,-0.88061 -0.68529,-1.62218 -0.80448,-2.22471c-0.11256,-0.60253 -0.16883,-0.90379 -0.16883,-0.90379h7.04164c0,0 0.04967,0.16884 0.14898,0.50652c0.10594,0.33106 0.33105,0.71508 0.67535,1.15208c0.35092,0.43038 0.86076,0.81441 1.52949,1.15208c0.66874,0.33106 1.56922,0.49658 2.70144,0.49658c1.39706,0 2.35382,-0.28471 2.87027,-0.85413c0.51645,-0.56942 0.77468,-1.13553 0.77468,-1.69833c0,-1.19843 -0.98325,-1.99959 -2.94973,-2.40348l-3.59529,-0.69522c-1.53611,-0.30457 -2.97952,-0.7482 -4.33024,-1.33085c-1.3441,-0.58266 -2.42667,-1.39707 -3.24772,-2.44321c-0.81441,-1.05276 -1.22161,-2.41341 -1.22161,-4.08194c0,-1.5957 0.41714,-3.02588 1.2514,-4.29051c0.83429,-1.27126 2.02612,-2.27105 3.57547,-2.99939c1.54935,-0.73495 3.40659,-1.10243 5.57171,-1.10243c2.03269,0 3.72441,0.27478 5.07512,0.82434c1.35071,0.54955 2.42334,1.23153 3.21788,2.04594c0.80116,0.8144 1.40038,1.63211 1.79765,2.45314c0.40389,0.8144 0.66211,1.49639 0.77468,2.04594c0.11918,0.54955 0.17877,0.82433 0.17877,0.82433h-6.79331c0,0 -0.10263,-0.22512 -0.30788,-0.67536c-0.19864,-0.45024 -0.60584,-0.90048 -1.22161,-1.35071c-0.61577,-0.45024 -1.55597,-0.67536 -2.82061,-0.67536c-1.29775,0 -2.19822,0.25822 -2.70143,0.77468c-0.50321,0.51645 -0.75482,1.05938 -0.75482,1.6288c0,0.66874 0.29134,1.16864 0.87399,1.4997c0.58928,0.33106 1.35071,0.59922 2.2843,0.80447l3.44632,0.69522c2.53591,0.50321 4.61827,1.38051 6.24707,2.63191c1.63543,1.24478 2.45314,3.05236 2.45314,5.42273c0,1.5957 -0.41714,3.04573 -1.2514,4.3501c-0.83427,1.29775 -2.05256,2.32072 -3.65488,3.06891c-1.5957,0.74819 -3.55888,1.12229 -5.88952,1.12229z" fill="url(#color-9)" stroke-linecap="butt"/><path d="M101.93295,199.1484v-37.99885h7.59778v37.99885z" fill="url(#color-10)" stroke-linecap="butt"/><path d="M340.31405,199.1484v-26.49789h7.60772v26.49789z" fill="url(#color-11)" stroke-linecap="butt"/><path d="M194.42624,199.14841v-36.99574h14.00376c2.99938,0 5.64123,0.52639 7.92553,1.57915c2.2843,1.04614 4.17464,2.45314 5.67103,4.22099c1.503,1.76785 2.63522,3.75089 3.39665,5.94912c0.76806,2.19822 1.15208,4.4461 1.15208,6.74365c0,2.30416 -0.38403,4.55536 -1.15208,6.75359c-0.76144,2.19822 -1.89365,4.18126 -3.39665,5.94911c-1.49639,1.76785 -3.38673,3.17816 -5.67103,4.23092c-2.2843,1.04615 -4.92614,1.56921 -7.92553,1.56921zM208.08239,168.89632h-5.94911v23.39918h5.94911c2.42997,0 4.43618,-0.5661 6.01864,-1.69833c1.58246,-1.13222 2.76434,-2.59881 3.54563,-4.39976c0.78792,-1.80096 1.18188,-3.66812 1.18188,-5.6015c0,-1.93338 -0.39396,-3.79061 -1.18188,-5.57171c-0.78129,-1.78109 -1.96317,-3.24768 -3.54563,-4.39976c-1.58246,-1.15208 -3.58867,-1.72813 -6.01864,-1.72813z" fill="url(#color-12)" stroke-linecap="butt"/><path d="M264.07451,199.14841v-26.49789h7.59778v3.59529h0.24829c0.56942,-0.96669 1.42024,-1.89034 2.55246,-2.77096c1.13222,-0.88061 2.68157,-1.32092 4.64805,-1.32092c1.99959,0 3.60853,0.46679 4.82682,1.40037c1.2183,0.93358 2.10884,2.08236 2.67164,3.44631h0.09932c0.43699,-0.76805 1.01303,-1.52617 1.72812,-2.27437c0.71508,-0.74819 1.61226,-1.36396 2.69151,-1.84731c1.08587,-0.48334 2.36375,-0.72502 3.83365,-0.72502c1.83405,0 3.35029,0.41713 4.54872,1.2514c1.19843,0.82765 2.08898,1.91683 2.67164,3.26754c0.58266,1.35072 0.874,2.79413 0.874,4.33024v18.14529h-7.59777v-16.24833c0,-1.29775 -0.32443,-2.37038 -0.97331,-3.21789c-0.64887,-0.85413 -1.62218,-1.28119 -2.91994,-1.28119c-0.99979,0 -1.81088,0.2516 -2.43327,0.75481c-0.61577,0.49659 -1.06601,1.13884 -1.35072,1.92676c-0.27809,0.7813 -0.41713,1.58577 -0.41713,2.41341v15.65243h-7.59779v-16.24833c0,-1.29775 -0.32775,-2.37038 -0.98325,-3.21789c-0.64887,-0.85413 -1.62218,-1.28119 -2.91993,-1.28119c-0.9998,0 -1.80757,0.2516 -2.42334,0.75481c-0.61577,0.49659 -1.06601,1.13884 -1.35072,1.92676c-0.28471,0.7813 -0.42706,1.58577 -0.42706,2.41341v15.65243z" fill="url(#color-13)" stroke-linecap="butt"/><path d="M319.87352,172.15393c1.69502,0 3.09208,0.27478 4.1912,0.82434c1.10573,0.54955 1.94993,1.14216 2.5326,1.77778c0.58266,0.62901 0.9402,1.05938 1.07262,1.29112h0.39727v-3.39666h7.59779v26.49789h-7.59779v-3.39666h-0.39727c-0.13243,0.23174 -0.48996,0.66543 -1.07262,1.30106c-0.58266,0.62901 -1.42686,1.2183 -2.5326,1.76785c-1.09912,0.54955 -2.49618,0.82433 -4.1912,0.82433c-1.96648,0 -3.67474,-0.39065 -5.12477,-1.17194c-1.45003,-0.7813 -2.6584,-1.83075 -3.62509,-3.14836c-0.96669,-1.31761 -1.6917,-2.79082 -2.17505,-4.41962c-0.48334,-1.63542 -0.72502,-3.30396 -0.72502,-5.0056c0,-1.70164 0.24167,-3.36686 0.72502,-4.99567c0.48335,-1.63542 1.20836,-3.11194 2.17505,-4.42955c0.96669,-1.31761 2.17506,-2.36707 3.62509,-3.14837c1.45004,-0.78129 3.15829,-1.17195 5.12477,-1.17195zM322.06845,178.30168c-1.36396,0 -2.50612,0.3741 -3.42645,1.12229c-0.91372,0.74819 -1.5957,1.70826 -2.04594,2.88021c-0.45024,1.16532 -0.67536,2.36375 -0.67536,3.59529c0,1.23153 0.22512,2.43328 0.67536,3.60522c0.45024,1.16532 1.13222,2.12209 2.04594,2.87027c0.92034,0.74819 2.06249,1.12229 3.42645,1.12229c1.37058,0 2.51273,-0.3741 3.42645,-1.12229c0.91372,-0.74819 1.5957,-1.70495 2.04594,-2.87027c0.45024,-1.17194 0.67535,-2.37369 0.67535,-3.60522c0,-1.23153 -0.22511,-2.42996 -0.67535,-3.59529c-0.45024,-1.17194 -1.13222,-2.13202 -2.04594,-2.88021c-0.91372,-0.74819 -2.05587,-1.12229 -3.42645,-1.12229z" fill="url(#color-14)" stroke-linecap="butt"/><path d="M155.57853,199.14841l-8.19369,-26.49789h7.59778l4.74738,17.20178l5.15457,-17.20178h6.89263l5.15458,17.20178l4.74737,-17.20178h7.59778l-8.19368,26.49789h-8.05464l-4.69772,-15.50345l-4.69771,15.50345z" fill="url(#color-15)" stroke-linecap="butt"/><path d="M131.0822,199.645c-2.96628,0 -5.48232,-0.63894 -7.54812,-1.91683c-2.06581,-1.28451 -3.64164,-2.96959 -4.72751,-5.05525c-1.07925,-2.08567 -1.61888,-4.34348 -1.61888,-6.77345c0,-2.42996 0.53963,-4.68778 1.61888,-6.77345c1.08587,-2.08567 2.6617,-3.76744 4.72751,-5.04532c2.06581,-1.28451 4.58184,-1.92676 7.54812,-1.92676c2.96628,0 5.48232,0.64226 7.54812,1.92676c2.06581,1.27788 3.64164,2.95966 4.72751,5.04532c1.08587,2.08567 1.6288,4.34349 1.6288,6.77345c0,2.42997 -0.54293,4.68778 -1.6288,6.77345c-1.08587,2.08567 -2.6617,3.77075 -4.72751,5.05525c-2.06581,1.27788 -4.58184,1.91683 -7.54812,1.91683zM131.0822,193.44759c1.33748,0 2.46307,-0.34762 3.37679,-1.04284c0.91372,-0.70184 1.61888,-1.6288 2.11546,-2.78088c0.50321,-1.15208 0.75481,-2.39355 0.75481,-3.72441c0,-1.36396 -0.2516,-2.61205 -0.75481,-3.74427c-0.49658,-1.13884 -1.20174,-2.05587 -2.11546,-2.75109c-0.91372,-0.70184 -2.03932,-1.05276 -3.37679,-1.05276c-1.33086,0 -2.46307,0.35092 -3.39665,1.05276c-0.93359,0.69522 -1.64205,1.61225 -2.1254,2.75109c-0.48334,1.13222 -0.72501,2.38031 -0.72501,3.74427c0,1.33086 0.24167,2.57233 0.72501,3.72441c0.48334,1.15208 1.19181,2.07904 2.1254,2.78088c0.93358,0.69522 2.0658,1.04284 3.39665,1.04284z" fill="url(#color-16)" stroke-linecap="butt"/><path d="M245.02382,199.645c-2.96628,0 -5.48232,-0.63894 -7.54813,-1.91683c-2.0658,-1.28451 -3.64164,-2.96959 -4.72751,-5.05525c-1.07925,-2.08567 -1.61888,-4.34348 -1.61888,-6.77345c0,-2.42996 0.53963,-4.68778 1.61888,-6.77345c1.08587,-2.08567 2.66171,-3.76744 4.72751,-5.04532c2.06581,-1.28451 4.58185,-1.92676 7.54813,-1.92676c2.96628,0 5.48232,0.64226 7.54812,1.92676c2.06581,1.27788 3.64164,2.95966 4.72751,5.04532c1.08587,2.08567 1.6288,4.34349 1.6288,6.77345c0,2.42997 -0.54293,4.68778 -1.6288,6.77345c-1.08587,2.08567 -2.6617,3.77075 -4.72751,5.05525c-2.0658,1.27788 -4.58184,1.91683 -7.54812,1.91683zM245.02382,193.44759c1.33747,0 2.46307,-0.34762 3.37679,-1.04284c0.91372,-0.70184 1.61888,-1.6288 2.11547,-2.78088c0.50321,-1.15208 0.75481,-2.39355 0.75481,-3.72441c0,-1.36396 -0.2516,-2.61205 -0.75481,-3.74427c-0.49658,-1.13884 -1.20175,-2.05587 -2.11547,-2.75109c-0.91372,-0.70184 -2.03931,-1.05276 -3.37679,-1.05276c-1.33086,0 -2.46308,0.35092 -3.39666,1.05276c-0.93358,0.69522 -1.64205,1.61225 -2.12539,2.75109c-0.48334,1.13222 -0.72502,2.38031 -0.72502,3.74427c0,1.33086 0.24167,2.57233 0.72502,3.72441c0.48334,1.15208 1.19181,2.07904 2.12539,2.78088c0.93358,0.69522 2.0658,1.04284 3.39666,1.04284z" fill="url(#color-17)" stroke-linecap="butt"/><path d="M71.7353,199.14841v-36.99574h25.85233v6.69399h-18.14529v9.70332h15.84113v6.4457h-15.84113v14.15273z" fill="url(#color-18)" stroke-linecap="butt"/><path d="M356.41774,199.14841v-26.49789h7.59779v3.80386h0.24829c0.30457,-0.53632 0.7482,-1.13553 1.33085,-1.79765c0.58266,-0.66873 1.36396,-1.2514 2.34389,-1.74798c0.98655,-0.50321 2.24457,-0.75482 3.77406,-0.75482c2.06581,0 3.74758,0.47672 5.04533,1.43017c1.30437,0.94683 2.25451,2.16181 2.85041,3.64495c0.60253,1.48314 0.90379,3.03912 0.90379,4.66792v17.25144h-7.59778v-15.95038c0,-1.26464 -0.34099,-2.38031 -1.02297,-3.347c-0.68198,-0.96669 -1.77447,-1.45003 -3.27747,-1.45003c-1.13222,0 -2.0327,0.26815 -2.70143,0.80447c-0.66212,0.5297 -1.14546,1.21168 -1.45004,2.04594c-0.29795,0.83426 -0.44693,1.71819 -0.44693,2.65178v15.24522z" fill="url(#color-19)" stroke-linecap="butt"/><path d="M397.46894,199.645c-2.20484,0 -4.02567,-0.29795 -5.46246,-0.89386c-1.43017,-0.60253 -2.56901,-1.34409 -3.41652,-2.22471c-0.84753,-0.88723 -1.47986,-1.77116 -1.897,-2.65177c-0.41714,-0.88061 -0.68529,-1.62218 -0.80448,-2.22471c-0.11256,-0.60253 -0.16883,-0.90379 -0.16883,-0.90379h7.04164c0,0 0.04967,0.16884 0.14898,0.50652c0.10594,0.33106 0.33105,0.71508 0.67535,1.15208c0.35092,0.43038 0.86076,0.81441 1.52949,1.15208c0.66874,0.33106 1.56922,0.49658 2.70144,0.49658c1.39706,0 2.35382,-0.28471 2.87027,-0.85413c0.51645,-0.56942 0.77468,-1.13553 0.77468,-1.69833c0,-1.19843 -0.98325,-1.99959 -2.94973,-2.40348l-3.59529,-0.69522c-1.53611,-0.30457 -2.97952,-0.7482 -4.33024,-1.33085c-1.3441,-0.58266 -2.42667,-1.39707 -3.24772,-2.44321c-0.81441,-1.05276 -1.22161,-2.41341 -1.22161,-4.08194c0,-1.5957 0.41714,-3.02588 1.2514,-4.29051c0.83429,-1.27126 2.02612,-2.27105 3.57547,-2.99939c1.54935,-0.73495 3.40659,-1.10243 5.57171,-1.10243c2.03269,0 3.72441,0.27478 5.07512,0.82434c1.35071,0.54955 2.42334,1.23153 3.21788,2.04594c0.80116,0.8144 1.40038,1.63211 1.79765,2.45314c0.40389,0.8144 0.66211,1.49639 0.77468,2.04594c0.11918,0.54955 0.17877,0.82433 0.17877,0.82433h-6.79331c0,0 -0.10263,-0.22512 -0.30788,-0.67536c-0.19864,-0.45024 -0.60584,-0.90048 -1.22161,-1.35071c-0.61577,-0.45024 -1.55597,-0.67536 -2.82061,-0.67536c-1.29775,0 -2.19822,0.25822 -2.70143,0.77468c-0.50321,0.51645 -0.75482,1.05938 -0.75482,1.6288c0,0.66874 0.29134,1.16864 0.87399,1.4997c0.58928,0.33106 1.35071,0.59922 2.2843,0.80447l3.44632,0.69522c2.53591,0.50321 4.61827,1.38051 6.24707,2.63191c1.63543,1.24478 2.45314,3.05236 2.45314,5.42273c0,1.5957 -0.41714,3.04573 -1.2514,4.3501c-0.83427,1.29775 -2.05256,2.32072 -3.65488,3.06891c-1.5957,0.74819 -3.55888,1.12229 -5.88952,1.12229z" fill="url(#color-20)" stroke-linecap="butt"/><path d="M103.93295,199.14841v-37.99885h7.59778v37.99885z" fill="url(#color-21)" stroke-linecap="butt"/><path d="M342.31405,199.14841v-26.49789h7.60772v26.49789z" fill="url(#color-22)" stroke-linecap="butt"/><path d="" fill="#000000" stroke-linecap="butt"/><path d="M335.4484,161.39861h6.34677l1.96107,-6.24672l2.14419,-0.00499l-0.18313,6.25171h6.3501l-5.18281,3.58194l3.99117,6.01742l-2.10681,0.00251l-5.01272,-3.70534l-2.84249,3.69561l-2.16689,0.00973l1.88436,-6.01993z" fill="url(#color-23)" stroke-linecap="square"/><path d="M337.56784,161.39861h6.34677l1.96107,-6.24672l1.96106,6.24672h6.3501l-5.1828,3.58194l1.88435,6.01993l-5.01271,-3.70534l-5.00939,3.70534l1.88435,-6.01993z" fill="url(#color-24)" stroke-linecap="square"/></g></g></svg>